# xmcd
#
# Track frame offsets:
#	150
#	19519
#	41607
#	61028
#	76007
#	92838
#	108735
#	129518
#	145085
#	163672
#	185145
#	205918
#	222422
#	241816
#	254353
#
# Disc length: 3698 seconds
#
# Revision: 0
# Processed by: cddbd v1.4PL0 Copyright (c) Steve Scherf et al.
# Submitted via: dBpowerAMP V4.0
#
DISCID=cd0e700f
DTITLE=Various Artist - The Miles of Music Sampler #4
DYEAR=2003
DGENRE=Country
TTITLE0=The Kickbacks - Banged Up, Black and Blue
TTITLE1=Dave Provost - Going, Going, Gone
TTITLE2=Paul Brill - From a Pen
TTITLE3=Wrinkle Neck Mules - Minor Enough
TTITLE4=Collin Herring - Drinking Again
TTITLE5=The Myrtles - Devil in a Bottle
TTITLE6=The Coming Grass - Waste of Time
TTITLE7=Malcolm Holcombe - The Station
TTITLE8=The Splendid Nobodies - California
TTITLE9=Dave Provost - It's About Time
TTITLE10=The Letterpress Opry - I Hear the Hudson Calling
TTITLE11=The Deadnecks - What Was I Thinkin'?
TTITLE12=Chris Knight - The Jealous Kind
TTITLE13=June Carter Cash - Keep on the Sunny Side
TTITLE14=Jake Williams - All I Want to be is Your Starship Captain
EXTD=
EXTT0=
EXTT1=
EXTT2=
EXTT3=
EXTT4=
EXTT5=
EXTT6=
EXTT7=
EXTT8=
EXTT9=
EXTT10=
EXTT11=
EXTT12=
EXTT13=
EXTT14=
PLAYORDER=
